<svg xmlns="http://www.w3.org/2000/svg" width="130" height="130" viewBox="0 0 130 130">
    <path fill="#000" fill-rule="evenodd" d="M64.998 40C50.642 40 39 51.64 39 66c0 11.488 7.45 21.232 17.78 24.67 1.302.24 1.776-.563 1.776-1.253 0-.616-.023-2.252-.035-4.42-7.232 1.57-8.758-3.487-8.758-3.487-1.183-3.004-2.888-3.803-2.888-3.803-2.36-1.612.179-1.58.179-1.58 2.61.183 3.982 2.68 3.982 2.68 2.32 3.972 6.086 2.825 7.568 2.159.236-1.68.908-2.825 1.65-3.475-5.773-.656-11.843-2.887-11.843-12.85 0-2.838 1.013-5.16 2.676-6.977-.268-.657-1.16-3.302.256-6.88 0 0 2.182-.7 7.149 2.665 2.073-.578 4.298-.865 6.509-.876 2.209.01 4.432.298 6.509.876 4.964-3.365 7.142-2.666 7.142-2.666 1.42 3.579.527 6.224.26 6.881 1.667 1.817 2.672 4.139 2.672 6.977 0 9.988-6.08 12.186-11.87 12.83.932.802 1.764 2.389 1.764 4.815 0 3.475-.032 6.28-.032 7.131 0 .696.47 1.506 1.788 1.252C83.557 87.223 91 77.485 91 66 91 51.64 79.358 40 64.998 40"/>
</svg>
