<svg xmlns="http://www.w3.org/2000/svg" width="130" height="130" viewBox="0 0 130 130">
    <path fill="#000" fill-rule="nonzero" d="M77.792 87.032c-1.595 1.735-5.29 2.912-8.6 2.968h-.362c-11.118 0-13.532-8.325-13.532-13.185v-13.5h-4.38a.91.91 0 0 1-.649-.275.944.944 0 0 1-.269-.661v-6.376c0-.672.417-1.272 1.039-1.496 5.707-2.048 7.497-7.12 7.762-10.977.072-1.03.6-1.53 1.479-1.53h6.528c.507 0 .918.419.918.935v10.798h7.641c.507 0 .918.417.92.933v7.662a.944.944 0 0 1-.27.66.91.91 0 0 1-.65.274h-7.676v12.486c0 3.135 2.028 4 3.281 4 1.202-.029 2.385-.402 2.978-.645.44-.18.827-.299 1.173-.21.323.082.534.314.677.738l2.026 6.026c.164.483.306 1.006-.034 1.375z"/>
</svg>
